<svg xmlns="http://www.w3.org/2000/svg" xmlns:xlink="http://www.w3.org/1999/xlink" width="40" zoomAndPan="magnify" viewBox="0 0 30 30.000001" height="40" preserveAspectRatio="xMidYMid meet" version="1.0"><defs><clipPath id="96dad02cdb"><path d="M 3.066406 6.84375 L 27.019531 6.84375 L 27.019531 22 L 3.066406 22 Z M 3.066406 6.84375 " clip-rule="nonzero"/></clipPath></defs><g clip-path="url(#96dad02cdb)"><path fill="#000000" d="M 7.859375 6.84375 L 8.324219 6.84375 L 8.707031 6.878906 C 8.710938 6.882812 8.714844 6.882812 8.71875 6.886719 C 8.742188 6.894531 8.785156 6.90625 8.84375 6.914062 C 9.066406 6.945312 9.300781 7.03125 9.539062 7.175781 C 9.902344 7.394531 9.992188 7.796875 9.949219 8.199219 C 9.945312 8.242188 9.949219 8.269531 9.992188 8.300781 C 10.246094 8.480469 10.480469 8.675781 10.695312 8.886719 C 10.710938 8.898438 10.726562 8.90625 10.742188 8.90625 L 19.289062 8.90625 C 19.320312 8.90625 19.34375 8.894531 19.363281 8.875 C 19.566406 8.667969 19.789062 8.484375 20.023438 8.320312 C 20.046875 8.304688 20.058594 8.28125 20.058594 8.253906 C 20.058594 8.058594 20.039062 7.824219 20.09375 7.648438 C 20.304688 7.007812 21.222656 6.878906 21.800781 6.84375 L 22.171875 6.84375 C 22.761719 6.894531 23.539062 6.984375 23.792969 7.617188 C 23.867188 7.804688 23.84375 8.066406 23.855469 8.277344 C 23.855469 8.289062 23.863281 8.296875 23.871094 8.304688 C 24.554688 8.804688 25.039062 9.382812 25.304688 10.183594 C 25.351562 10.324219 25.40625 10.554688 25.46875 10.863281 C 25.945312 13.296875 26.425781 15.730469 26.914062 18.164062 C 26.957031 18.386719 26.992188 18.613281 27.015625 18.84375 L 27.015625 19.09375 C 26.929688 20.351562 26.09375 21.410156 24.835938 21.679688 C 24.675781 21.714844 24.5 21.722656 24.328125 21.730469 L 24.25 21.730469 C 23.453125 21.675781 22.726562 21.207031 22.332031 20.519531 C 21.597656 19.246094 20.878906 17.964844 20.167969 16.679688 C 20.160156 16.667969 20.152344 16.667969 20.144531 16.675781 C 19.507812 17.261719 18.78125 17.539062 17.921875 17.367188 C 17.246094 17.234375 16.707031 16.78125 16.359375 16.207031 C 16.347656 16.183594 16.328125 16.175781 16.304688 16.175781 L 13.65625 16.175781 C 13.640625 16.175781 13.625 16.183594 13.613281 16.199219 C 13.121094 16.980469 12.394531 17.453125 11.457031 17.410156 C 10.84375 17.382812 10.296875 17.128906 9.886719 16.679688 C 9.867188 16.660156 9.851562 16.660156 9.839844 16.683594 C 9.117188 17.964844 8.402344 19.242188 7.6875 20.523438 C 6.988281 21.773438 5.453125 22.085938 4.277344 21.273438 C 3.582031 20.789062 3.179688 20.125 3.070312 19.285156 L 3.070312 18.75 C 3.089844 18.570312 3.109375 18.421875 3.132812 18.304688 C 3.609375 15.863281 4.085938 13.414062 4.558594 10.96875 C 4.621094 10.636719 4.671875 10.410156 4.707031 10.285156 C 4.941406 9.484375 5.410156 8.839844 6.105469 8.355469 C 6.132812 8.335938 6.144531 8.3125 6.144531 8.285156 C 6.140625 8.152344 6.144531 8.019531 6.15625 7.882812 C 6.222656 7.039062 7.191406 6.902344 7.859375 6.84375 Z M 22.058594 10.378906 C 22.261719 10.351562 22.429688 10.253906 22.554688 10.089844 C 22.679688 9.921875 22.730469 9.734375 22.699219 9.527344 C 22.671875 9.320312 22.578125 9.152344 22.410156 9.023438 C 22.246094 8.898438 22.058594 8.847656 21.855469 8.875 C 21.648438 8.902344 21.484375 9 21.355469 9.164062 C 21.230469 9.332031 21.183594 9.515625 21.210938 9.726562 C 21.238281 9.933594 21.335938 10.101562 21.5 10.230469 C 21.664062 10.355469 21.851562 10.40625 22.058594 10.378906 Z M 6.394531 10.765625 C 6.367188 10.789062 6.355469 10.816406 6.355469 10.851562 L 6.355469 11.683594 C 6.355469 11.699219 6.359375 11.710938 6.367188 11.722656 C 6.433594 11.832031 6.515625 11.871094 6.652344 11.871094 C 6.957031 11.875 7.257812 11.875 7.5625 11.875 C 7.578125 11.875 7.582031 11.882812 7.582031 11.894531 L 7.59375 12.964844 C 7.59375 12.972656 7.597656 12.976562 7.601562 12.984375 C 7.667969 13.082031 7.742188 13.121094 7.871094 13.125 C 8.039062 13.125 8.207031 13.128906 8.375 13.132812 C 8.578125 13.136719 8.765625 13.097656 8.761719 12.863281 C 8.753906 12.539062 8.753906 12.214844 8.757812 11.890625 C 8.757812 11.878906 8.765625 11.875 8.777344 11.875 C 9.070312 11.867188 9.367188 11.867188 9.660156 11.878906 C 9.730469 11.878906 9.878906 11.839844 9.921875 11.785156 C 10.007812 11.671875 9.96875 11.371094 9.96875 11.253906 C 9.96875 11.027344 10.058594 10.691406 9.699219 10.691406 C 9.386719 10.6875 9.082031 10.6875 8.78125 10.6875 C 8.753906 10.6875 8.742188 10.675781 8.742188 10.648438 C 8.726562 10.316406 8.722656 9.984375 8.722656 9.65625 C 8.71875 9.492188 8.605469 9.386719 8.445312 9.386719 C 8.234375 9.390625 8.023438 9.394531 7.8125 9.398438 C 7.671875 9.398438 7.5625 9.472656 7.554688 9.625 C 7.535156 9.941406 7.5625 10.214844 7.554688 10.667969 C 7.550781 10.679688 7.546875 10.6875 7.535156 10.6875 C 7.238281 10.6875 6.949219 10.6875 6.65625 10.6875 C 6.550781 10.6875 6.472656 10.703125 6.394531 10.765625 Z M 20.09375 12.183594 C 20.300781 12.179688 20.480469 12.105469 20.621094 11.953125 C 20.765625 11.804688 20.839844 11.625 20.835938 11.414062 C 20.832031 11.207031 20.753906 11.027344 20.605469 10.882812 C 20.457031 10.738281 20.277344 10.667969 20.070312 10.667969 C 19.863281 10.671875 19.6875 10.75 19.542969 10.898438 C 19.398438 11.050781 19.328125 11.230469 19.332031 11.4375 C 19.335938 11.648438 19.410156 11.824219 19.558594 11.96875 C 19.707031 12.117188 19.886719 12.1875 20.09375 12.183594 Z M 23.878906 12.1875 C 24.085938 12.1875 24.261719 12.109375 24.410156 11.960938 C 24.554688 11.8125 24.625 11.632812 24.625 11.421875 C 24.621094 11.210938 24.546875 11.03125 24.398438 10.886719 C 24.25 10.738281 24.074219 10.667969 23.863281 10.667969 C 23.65625 10.667969 23.480469 10.746094 23.335938 10.894531 C 23.1875 11.042969 23.117188 11.222656 23.117188 11.433594 C 23.121094 11.644531 23.195312 11.824219 23.34375 11.96875 C 23.492188 12.117188 23.671875 12.191406 23.878906 12.1875 Z M 17.753906 11.578125 C 17.753906 11.496094 17.722656 11.425781 17.664062 11.363281 C 17.601562 11.304688 17.53125 11.277344 17.445312 11.277344 L 16.507812 11.277344 C 16.421875 11.277344 16.351562 11.308594 16.292969 11.367188 C 16.234375 11.425781 16.203125 11.496094 16.203125 11.582031 L 16.203125 11.609375 C 16.203125 11.691406 16.234375 11.761719 16.292969 11.820312 C 16.351562 11.882812 16.425781 11.910156 16.507812 11.910156 L 17.449219 11.910156 C 17.53125 11.910156 17.605469 11.878906 17.664062 11.820312 C 17.722656 11.761719 17.753906 11.6875 17.753906 11.605469 Z M 12.554688 11.289062 C 12.238281 11.296875 12.171875 11.707031 12.414062 11.855469 C 12.46875 11.890625 12.558594 11.910156 12.6875 11.910156 C 12.964844 11.910156 13.246094 11.910156 13.523438 11.902344 C 13.933594 11.890625 13.894531 11.28125 13.515625 11.28125 C 13.195312 11.28125 12.875 11.285156 12.554688 11.289062 Z M 22.089844 12.476562 C 21.625 12.382812 21.148438 12.796875 21.203125 13.28125 C 21.25 13.707031 21.589844 14.027344 22.042969 13.984375 C 22.890625 13.898438 22.953125 12.648438 22.089844 12.476562 Z M 11.765625 13.121094 C 10.9375 12.976562 10.152344 13.648438 10.097656 14.460938 C 10.050781 15.253906 10.621094 15.941406 11.433594 16.011719 C 12.449219 16.097656 13.242188 15.117188 12.945312 14.144531 C 12.785156 13.601562 12.324219 13.21875 11.765625 13.121094 Z M 16.960938 14.390625 C 16.816406 15.6875 18.351562 16.539062 19.367188 15.65625 C 20.324219 14.828125 19.828125 13.261719 18.566406 13.113281 C 17.777344 13.023438 17.046875 13.601562 16.960938 14.390625 Z M 16.960938 14.390625 " fill-opacity="1" fill-rule="nonzero"/></g></svg>